<?xml version="1.0" standalone="no"?>
<!DOCTYPE svg PUBLIC "-//W3C//DTD SVG 20010904//EN"
 "http://www.w3.org/TR/2001/REC-SVG-20010904/DTD/svg10.dtd">
<svg version="1.0" xmlns="http://www.w3.org/2000/svg"
 width="600.000000pt" height="600.000000pt" viewBox="0 0 600.000000 600.000000"
 preserveAspectRatio="xMidYMid meet">
<metadata>
Created by potrace 1.11, written by Peter Selinger 2001-2013
</metadata>
<g transform="translate(0.000000,600.000000) scale(0.100000,-0.100000)"
fill="#000000" stroke="none">
<path d="M2858 4956 c-35 -13 -75 -32 -89 -44 -56 -48 -66 -58 -86 -87 -19
-28 -473 -811 -675 -1165 -48 -85 -92 -162 -97 -170 -48 -76 -192 -331 -201
-355 -50 -126 -20 -281 73 -382 150 -163 401 -163 550 1 16 17 35 43 43 59 8
15 17 27 19 27 3 0 35 -21 71 -46 170 -116 332 -167 529 -167 196 1 378 58
530 167 57 41 62 42 69 18 9 -27 76 -96 121 -125 98 -63 242 -73 348 -24 96
44 187 153 211 252 13 51 8 149 -10 201 -16 46 -49 107 -334 599 -70 121 -152
263 -182 315 -513 889 -466 814 -532 867 -98 79 -235 102 -358 59z m196 -1260
c32 -13 58 -49 126 -170 17 -31 19 -41 8 -47 -7 -4 -24 -17 -38 -29 -64 -56
-90 -71 -137 -77 -81 -9 -149 35 -176 112 -30 90 6 171 93 209 44 19 82 20
124 2z"/>
<path d="M1713 1996 c-23 -20 -28 -32 -28 -71 0 -40 4 -50 30 -71 42 -34 93
-32 127 4 40 42 41 96 2 136 -35 35 -92 36 -131 2z"/>
<path d="M981 1988 c-5 -13 -91 -227 -190 -475 -100 -249 -181 -454 -181 -456
0 -1 42 -3 92 -2 l93 0 41 100 41 100 207 0 208 0 39 -100 40 -101 93 0 c100
1 98 0 75 51 -4 11 -54 135 -109 275 -56 140 -107 269 -114 285 -7 17 -41 101
-76 188 l-62 157 -94 0 c-89 0 -95 -1 -103 -22z m222 -515 l17 -43 -136 0
-135 0 7 23 c3 12 14 40 24 62 9 22 36 89 60 149 l43 108 52 -128 c28 -71 59
-148 68 -171z"/>
<path d="M2333 1779 c-23 -4 -51 -13 -62 -18 -25 -14 -44 -14 -36 -1 6 9 -15
12 -90 12 -14 0 -38 0 -55 -1 l-30 -1 0 -357 0 -358 85 0 c47 -1 86 2 86 5 1
3 2 100 3 215 2 228 6 247 63 299 49 46 155 44 198 -4 17 -18 19 -17 81 32 35
27 64 56 64 63 0 15 -59 64 -105 87 -54 28 -138 39 -202 27z"/>
<path d="M3023 1779 c-106 -19 -204 -93 -253 -189 -95 -189 -32 -402 151 -507
119 -68 295 -47 403 48 l35 30 -42 37 c-23 20 -50 45 -61 55 -22 19 -42 22
-51 7 -12 -19 -77 -40 -122 -40 -99 0 -183 86 -183 188 0 162 164 255 294 167
l37 -25 39 36 c22 20 49 43 60 51 31 22 24 40 -27 77 -77 56 -188 82 -280 65z"/>
<path d="M3769 1779 c-102 -16 -211 -94 -257 -185 -73 -146 -48 -324 62 -442
145 -155 409 -139 535 32 51 68 72 127 76 208 12 242 -183 423 -416 387z m138
-188 c116 -53 139 -237 41 -328 -79 -73 -219 -51 -274 43 -98 168 61 363 233
285z"/>
<path d="M4590 1777 c-52 -11 -52 -11 -150 -8 -41 1 -80 2 -85 2 -7 -1 -10
-122 -9 -353 1 -194 2 -355 3 -358 0 -3 38 -6 84 -5 l82 0 1 226 c1 186 4 231
18 260 42 88 161 91 212 5 16 -27 18 -57 20 -256 1 -124 2 -228 3 -231 1 -5
136 -5 162 0 4 1 6 101 6 224 0 248 4 265 62 304 57 39 121 25 166 -35 18 -24
19 -44 20 -262 l1 -235 87 0 88 -1 -1 244 c-1 268 -6 293 -63 368 -17 23 -46
52 -64 64 -101 70 -254 68 -348 -4 l-32 -25 -44 30 c-69 46 -142 62 -219 46z"/>
<path d="M1690 1412 l0 -358 79 1 c44 0 83 4 88 8 4 5 8 166 8 358 l1 349 -88
0 -88 0 0 -358z"/>
</g>
</svg>
